<?xml version="1.0" encoding="UTF-8" standalone="no"?>
<!DOCTYPE svg PUBLIC "-//W3C//DTD SVG 1.1//EN"
 "http://www.w3.org/Graphics/SVG/1.1/DTD/svg11.dtd">
<!-- Generated by graphviz version 2.40.1 (20161225.0304)
 -->
<!-- Title: %3 Pages: 1 -->
<svg width="720pt" height="232pt"
 viewBox="0.00 0.00 720.00 232.41" xmlns="http://www.w3.org/2000/svg" xmlns:xlink="http://www.w3.org/1999/xlink">
<g id="graph0" class="graph" transform="scale(.4883 .4883) rotate(0) translate(4 472)">
<title>%3</title>
<polygon fill="#ffffff" stroke="transparent" points="-4,4 -4,-472 1470.6047,-472 1470.6047,4 -4,4"/>
<!-- any -->
<g id="node1" class="node">
<title>any</title>
<polygon fill="#d3d3d3" stroke="#000000" points="1143.6047,-36 1089.6047,-36 1089.6047,0 1143.6047,0 1143.6047,-36"/>
<text text-anchor="middle" x="1116.6047" y="-12" font-family="Times,serif" font-size="20.00" fill="#000000">any</text>
</g>
<!-- symbols -->
<g id="node2" class="node">
<title>symbols</title>
<polygon fill="#d3d3d3" stroke="#000000" points="84.785,-108 2.4244,-108 2.4244,-72 84.785,-72 84.785,-108"/>
<text text-anchor="middle" x="43.6047" y="-84" font-family="Times,serif" font-size="20.00" fill="#000000">symbols</text>
</g>
<!-- symbols&#45;&gt;any -->
<g id="edge1" class="edge">
<title>symbols&#45;&gt;any</title>
<path fill="none" stroke="#000000" d="M85.0101,-87.2216C257.2385,-75.6648 915.5495,-31.4911 1079.4714,-20.4917"/>
<polygon fill="#000000" stroke="#000000" points="1079.8001,-23.9776 1089.5433,-19.8159 1079.3313,-16.9933 1079.8001,-23.9776"/>
</g>
<!-- symbol -->
<g id="node3" class="node">
<title>symbol</title>
<polygon fill="#d3d3d3" stroke="#000000" points="164.0013,-396 89.2082,-396 89.2082,-360 164.0013,-360 164.0013,-396"/>
<text text-anchor="middle" x="126.6047" y="-372" font-family="Times,serif" font-size="20.00" fill="#000000">symbol</text>
</g>
<!-- symbol&#45;&gt;symbols -->
<g id="edge2" class="edge">
<title>symbol&#45;&gt;symbols</title>
<path fill="none" stroke="#000000" d="M110.2766,-359.7875C81.9334,-326.8056 24.6452,-253.7435 3.6047,-180 -.7852,-164.614 -1.4097,-159.1939 3.6047,-144 6.8955,-134.0288 12.8163,-124.3944 19.1112,-116.0924"/>
<polygon fill="#000000" stroke="#000000" points="21.8719,-118.2448 25.4471,-108.2714 16.4327,-113.8384 21.8719,-118.2448"/>
</g>
<!-- words -->
<g id="node4" class="node">
<title>words</title>
<polygon fill="#d3d3d3" stroke="#000000" points="1148.9915,-108 1084.2179,-108 1084.2179,-72 1148.9915,-72 1148.9915,-108"/>
<text text-anchor="middle" x="1116.6047" y="-84" font-family="Times,serif" font-size="20.00" fill="#000000">words</text>
</g>
<!-- words&#45;&gt;any -->
<g id="edge3" class="edge">
<title>words&#45;&gt;any</title>
<path fill="none" stroke="#000000" d="M1116.6047,-71.8314C1116.6047,-64.131 1116.6047,-54.9743 1116.6047,-46.4166"/>
<polygon fill="#000000" stroke="#000000" points="1120.1048,-46.4132 1116.6047,-36.4133 1113.1048,-46.4133 1120.1048,-46.4132"/>
</g>
<!-- formated_words -->
<g id="node5" class="node">
<title>formated_words</title>
<polygon fill="#d3d3d3" stroke="#000000" points="746.1789,-108 599.0305,-108 599.0305,-72 746.1789,-72 746.1789,-108"/>
<text text-anchor="middle" x="672.6047" y="-84" font-family="Times,serif" font-size="20.00" fill="#000000">formated_words</text>
</g>
<!-- formated_words&#45;&gt;any -->
<g id="edge4" class="edge">
<title>formated_words&#45;&gt;any</title>
<path fill="none" stroke="#000000" d="M746.4207,-78.0298C842.3127,-62.4798 1006.0898,-35.9213 1079.3141,-24.0471"/>
<polygon fill="#000000" stroke="#000000" points="1080.1309,-27.4605 1089.4417,-22.4048 1079.0104,-20.5507 1080.1309,-27.4605"/>
</g>
<!-- formated_lower_words -->
<g id="node6" class="node">
<title>formated_lower_words</title>
<polygon fill="#d3d3d3" stroke="#000000" points="397.7164,-180 195.493,-180 195.493,-144 397.7164,-144 397.7164,-180"/>
<text text-anchor="middle" x="296.6047" y="-156" font-family="Times,serif" font-size="20.00" fill="#000000">formated_lower_words</text>
</g>
<!-- formated_lower_words&#45;&gt;formated_words -->
<g id="edge5" class="edge">
<title>formated_lower_words&#45;&gt;formated_words</title>
<path fill="none" stroke="#000000" d="M391.0001,-143.9243C451.8694,-132.2685 530.3148,-117.247 588.9455,-106.0199"/>
<polygon fill="#000000" stroke="#000000" points="589.7516,-109.4292 598.9148,-104.1108 588.435,-102.5541 589.7516,-109.4292"/>
</g>
<!-- lower_words -->
<g id="node7" class="node">
<title>lower_words</title>
<polygon fill="#d3d3d3" stroke="#000000" points="537.0293,-180 416.1801,-180 416.1801,-144 537.0293,-144 537.0293,-180"/>
<text text-anchor="middle" x="476.6047" y="-156" font-family="Times,serif" font-size="20.00" fill="#000000">lower_words</text>
</g>
<!-- lower_words&#45;&gt;words -->
<g id="edge6" class="edge">
<title>lower_words&#45;&gt;words</title>
<path fill="none" stroke="#000000" d="M537.0654,-145.64C539.9435,-145.0464 542.8007,-144.495 545.6047,-144 741.2505,-109.4613 978.7743,-95.9588 1074.0578,-91.682"/>
<polygon fill="#000000" stroke="#000000" points="1074.327,-95.1737 1084.1642,-91.2393 1074.0205,-88.1804 1074.327,-95.1737"/>
</g>
<!-- formated_upper_words -->
<g id="node8" class="node">
<title>formated_upper_words</title>
<polygon fill="#d3d3d3" stroke="#000000" points="832.7164,-180 630.493,-180 630.493,-144 832.7164,-144 832.7164,-180"/>
<text text-anchor="middle" x="731.6047" y="-156" font-family="Times,serif" font-size="20.00" fill="#000000">formated_upper_words</text>
</g>
<!-- formated_upper_words&#45;&gt;formated_words -->
<g id="edge7" class="edge">
<title>formated_upper_words&#45;&gt;formated_words</title>
<path fill="none" stroke="#000000" d="M716.7165,-143.8314C709.8517,-135.454 701.5746,-125.3531 694.0536,-116.1749"/>
<polygon fill="#000000" stroke="#000000" points="696.7388,-113.9297 687.6934,-108.4133 691.3244,-118.3665 696.7388,-113.9297"/>
</g>
<!-- upper_words -->
<g id="node9" class="node">
<title>upper_words</title>
<polygon fill="#d3d3d3" stroke="#000000" points="1177.0293,-180 1056.1801,-180 1056.1801,-144 1177.0293,-144 1177.0293,-180"/>
<text text-anchor="middle" x="1116.6047" y="-156" font-family="Times,serif" font-size="20.00" fill="#000000">upper_words</text>
</g>
<!-- upper_words&#45;&gt;words -->
<g id="edge8" class="edge">
<title>upper_words&#45;&gt;words</title>
<path fill="none" stroke="#000000" d="M1116.6047,-143.8314C1116.6047,-136.131 1116.6047,-126.9743 1116.6047,-118.4166"/>
<polygon fill="#000000" stroke="#000000" points="1120.1048,-118.4132 1116.6047,-108.4133 1113.1048,-118.4133 1120.1048,-118.4132"/>
</g>
<!-- formated_title_words -->
<g id="node10" class="node">
<title>formated_title_words</title>
<polygon fill="#d3d3d3" stroke="#000000" points="1038.7825,-180 850.4269,-180 850.4269,-144 1038.7825,-144 1038.7825,-180"/>
<text text-anchor="middle" x="944.6047" y="-156" font-family="Times,serif" font-size="20.00" fill="#000000">formated_title_words</text>
</g>
<!-- formated_title_words&#45;&gt;formated_words -->
<g id="edge9" class="edge">
<title>formated_title_words&#45;&gt;formated_words</title>
<path fill="none" stroke="#000000" d="M876.3187,-143.9243C838.1647,-133.8247 790.4646,-121.1982 750.815,-110.7027"/>
<polygon fill="#000000" stroke="#000000" points="751.4815,-107.2587 740.9188,-108.0831 749.6902,-114.0256 751.4815,-107.2587"/>
</g>
<!-- title_words -->
<g id="node11" class="node">
<title>title_words</title>
<polygon fill="#d3d3d3" stroke="#000000" points="1300.5949,-180 1194.6145,-180 1194.6145,-144 1300.5949,-144 1300.5949,-180"/>
<text text-anchor="middle" x="1247.6047" y="-156" font-family="Times,serif" font-size="20.00" fill="#000000">title_words</text>
</g>
<!-- title_words&#45;&gt;words -->
<g id="edge10" class="edge">
<title>title_words&#45;&gt;words</title>
<path fill="none" stroke="#000000" d="M1214.5479,-143.8314C1197.5079,-134.4659 1176.5488,-122.9464 1158.3976,-112.9701"/>
<polygon fill="#000000" stroke="#000000" points="1159.6466,-109.6628 1149.1972,-107.9134 1156.2749,-115.7973 1159.6466,-109.6628"/>
</g>
<!-- ints -->
<g id="node12" class="node">
<title>ints</title>
<polygon fill="#d3d3d3" stroke="#000000" points="1303.6047,-108 1249.6047,-108 1249.6047,-72 1303.6047,-72 1303.6047,-108"/>
<text text-anchor="middle" x="1276.6047" y="-84" font-family="Times,serif" font-size="20.00" fill="#000000">ints</text>
</g>
<!-- ints&#45;&gt;any -->
<g id="edge11" class="edge">
<title>ints&#45;&gt;any</title>
<path fill="none" stroke="#000000" d="M1249.4629,-77.7862C1222.9489,-65.8549 1182.4141,-47.6142 1153.0905,-34.4186"/>
<polygon fill="#000000" stroke="#000000" points="1154.1677,-31.0653 1143.6122,-30.1534 1151.2951,-37.4488 1154.1677,-31.0653"/>
</g>
<!-- formated_ints -->
<g id="node13" class="node">
<title>formated_ints</title>
<polygon fill="#d3d3d3" stroke="#000000" points="464.1887,-108 337.0207,-108 337.0207,-72 464.1887,-72 464.1887,-108"/>
<text text-anchor="middle" x="400.6047" y="-84" font-family="Times,serif" font-size="20.00" fill="#000000">formated_ints</text>
</g>
<!-- formated_ints&#45;&gt;any -->
<g id="edge12" class="edge">
<title>formated_ints&#45;&gt;any</title>
<path fill="none" stroke="#000000" d="M464.4597,-83.5788C610.2056,-68.9228 963.6858,-33.3773 1079.3165,-21.7496"/>
<polygon fill="#000000" stroke="#000000" points="1079.8374,-25.215 1089.437,-20.7319 1079.137,-18.2501 1079.8374,-25.215"/>
</g>
<!-- pos_ints -->
<g id="node14" class="node">
<title>pos_ints</title>
<polygon fill="#d3d3d3" stroke="#000000" points="1400.785,-180 1318.4244,-180 1318.4244,-144 1400.785,-144 1400.785,-180"/>
<text text-anchor="middle" x="1359.6047" y="-156" font-family="Times,serif" font-size="20.00" fill="#000000">pos_ints</text>
</g>
<!-- pos_ints&#45;&gt;words -->
<g id="edge13" class="edge">
<title>pos_ints&#45;&gt;words</title>
<path fill="none" stroke="#000000" d="M1318.2127,-146.8368C1315.3075,-145.8533 1312.417,-144.8983 1309.6047,-144 1258.2294,-127.5892 1198.3105,-111.254 1159.0298,-100.9194"/>
<polygon fill="#000000" stroke="#000000" points="1159.8206,-97.5086 1149.2601,-98.3609 1158.0472,-104.2802 1159.8206,-97.5086"/>
</g>
<!-- pos_ints&#45;&gt;ints -->
<g id="edge14" class="edge">
<title>pos_ints&#45;&gt;ints</title>
<path fill="none" stroke="#000000" d="M1338.6603,-143.8314C1328.5356,-135.0485 1316.2271,-124.3712 1305.2499,-114.8489"/>
<polygon fill="#000000" stroke="#000000" points="1307.3898,-112.0718 1297.5424,-108.1628 1302.8028,-117.3595 1307.3898,-112.0718"/>
</g>
<!-- formated_pos_ints -->
<g id="node15" class="node">
<title>formated_pos_ints</title>
<polygon fill="#d3d3d3" stroke="#000000" points="176.9719,-180 12.2375,-180 12.2375,-144 176.9719,-144 176.9719,-180"/>
<text text-anchor="middle" x="94.6047" y="-156" font-family="Times,serif" font-size="20.00" fill="#000000">formated_pos_ints</text>
</g>
<!-- formated_pos_ints&#45;&gt;formated_words -->
<g id="edge15" class="edge">
<title>formated_pos_ints&#45;&gt;formated_words</title>
<path fill="none" stroke="#000000" d="M177.3003,-145.4861C180.4384,-144.9657 183.5481,-144.468 186.6047,-144 327.0204,-122.5003 491.5099,-106.0359 588.6131,-97.2096"/>
<polygon fill="#000000" stroke="#000000" points="589.0207,-100.6871 598.6651,-96.3013 588.3907,-93.7155 589.0207,-100.6871"/>
</g>
<!-- formated_pos_ints&#45;&gt;formated_ints -->
<g id="edge16" class="edge">
<title>formated_pos_ints&#45;&gt;formated_ints</title>
<path fill="none" stroke="#000000" d="M171.4265,-143.9243C219.0274,-132.7241 279.8359,-118.4162 326.8528,-107.3534"/>
<polygon fill="#000000" stroke="#000000" points="327.7342,-110.7417 336.6667,-105.0442 326.1308,-103.9277 327.7342,-110.7417"/>
</g>
<!-- word -->
<g id="node16" class="node">
<title>word</title>
<polygon fill="#d3d3d3" stroke="#000000" points="612.2083,-180 555.0011,-180 555.0011,-144 612.2083,-144 612.2083,-180"/>
<text text-anchor="middle" x="583.6047" y="-156" font-family="Times,serif" font-size="20.00" fill="#000000">word</text>
</g>
<!-- word&#45;&gt;words -->
<g id="edge17" class="edge">
<title>word&#45;&gt;words</title>
<path fill="none" stroke="#000000" d="M612.2639,-147.2102C615.363,-145.979 618.5139,-144.8738 621.6047,-144 706.3524,-120.0412 969.7648,-100.013 1073.7555,-92.8358"/>
<polygon fill="#000000" stroke="#000000" points="1074.1542,-96.3168 1083.8919,-92.1422 1073.6762,-89.3332 1074.1542,-96.3168"/>
</g>
<!-- word&#45;&gt;formated_words -->
<g id="edge18" class="edge">
<title>word&#45;&gt;formated_words</title>
<path fill="none" stroke="#000000" d="M606.0632,-143.8314C617.0252,-134.9632 630.3746,-124.1637 642.2312,-114.5718"/>
<polygon fill="#000000" stroke="#000000" points="644.5803,-117.1734 650.1534,-108.1628 640.1776,-111.7313 644.5803,-117.1734"/>
</g>
<!-- lower_word -->
<g id="node17" class="node">
<title>lower_word</title>
<polygon fill="#d3d3d3" stroke="#000000" points="603.7459,-252 491.4635,-252 491.4635,-216 603.7459,-216 603.7459,-252"/>
<text text-anchor="middle" x="547.6047" y="-228" font-family="Times,serif" font-size="20.00" fill="#000000">lower_word</text>
</g>
<!-- lower_word&#45;&gt;formated_lower_words -->
<g id="edge19" class="edge">
<title>lower_word&#45;&gt;formated_lower_words</title>
<path fill="none" stroke="#000000" d="M491.2754,-217.8418C455.1659,-207.4837 407.946,-193.9385 369.0556,-182.7827"/>
<polygon fill="#000000" stroke="#000000" points="369.937,-179.3945 359.3595,-180.0014 368.0068,-186.1231 369.937,-179.3945"/>
</g>
<!-- lower_word&#45;&gt;lower_words -->
<g id="edge20" class="edge">
<title>lower_word&#45;&gt;lower_words</title>
<path fill="none" stroke="#000000" d="M529.6884,-215.8314C521.2605,-207.2848 511.0637,-196.9443 501.8687,-187.6198"/>
<polygon fill="#000000" stroke="#000000" points="504.2758,-185.0761 494.7622,-180.4133 499.2916,-189.9912 504.2758,-185.0761"/>
</g>
<!-- lower_word&#45;&gt;word -->
<g id="edge21" class="edge">
<title>lower_word&#45;&gt;word</title>
<path fill="none" stroke="#000000" d="M556.689,-215.8314C560.6662,-207.8771 565.4202,-198.369 569.8186,-189.5723"/>
<polygon fill="#000000" stroke="#000000" points="573.0564,-190.9228 574.3981,-180.4133 566.7954,-187.7923 573.0564,-190.9228"/>
</g>
<!-- upper_word -->
<g id="node18" class="node">
<title>upper_word</title>
<polygon fill="#d3d3d3" stroke="#000000" points="809.7459,-252 697.4635,-252 697.4635,-216 809.7459,-216 809.7459,-252"/>
<text text-anchor="middle" x="753.6047" y="-228" font-family="Times,serif" font-size="20.00" fill="#000000">upper_word</text>
</g>
<!-- upper_word&#45;&gt;formated_upper_words -->
<g id="edge22" class="edge">
<title>upper_word&#45;&gt;formated_upper_words</title>
<path fill="none" stroke="#000000" d="M748.0532,-215.8314C745.6744,-208.0463 742.8409,-198.7729 740.2014,-190.1347"/>
<polygon fill="#000000" stroke="#000000" points="743.5005,-188.954 737.231,-180.4133 736.806,-190.9996 743.5005,-188.954"/>
</g>
<!-- upper_word&#45;&gt;upper_words -->
<g id="edge23" class="edge">
<title>upper_word&#45;&gt;upper_words</title>
<path fill="none" stroke="#000000" d="M809.9402,-224.9187C867.1582,-215.4105 958.5078,-199.4505 1046.2349,-180.2319"/>
<polygon fill="#000000" stroke="#000000" points="1047.0737,-183.631 1056.0837,-178.0569 1045.5642,-176.7957 1047.0737,-183.631"/>
</g>
<!-- upper_word&#45;&gt;word -->
<g id="edge24" class="edge">
<title>upper_word&#45;&gt;word</title>
<path fill="none" stroke="#000000" d="M707.8364,-215.9839C682.3155,-205.7613 650.0367,-192.5386 621.6047,-180 621.5087,-179.9577 621.4126,-179.9152 621.3163,-179.8727"/>
<polygon fill="#000000" stroke="#000000" points="622.7159,-176.6644 612.1624,-175.73 619.8298,-183.0418 622.7159,-176.6644"/>
</g>
<!-- title_word -->
<g id="node19" class="node">
<title>title_word</title>
<polygon fill="#d3d3d3" stroke="#000000" points="970.812,-252 872.3975,-252 872.3975,-216 970.812,-216 970.812,-252"/>
<text text-anchor="middle" x="921.6047" y="-228" font-family="Times,serif" font-size="20.00" fill="#000000">title_word</text>
</g>
<!-- title_word&#45;&gt;formated_title_words -->
<g id="edge25" class="edge">
<title>title_word&#45;&gt;formated_title_words</title>
<path fill="none" stroke="#000000" d="M927.4086,-215.8314C929.8955,-208.0463 932.8578,-198.7729 935.6172,-190.1347"/>
<polygon fill="#000000" stroke="#000000" points="939.0137,-191.0041 938.7227,-180.4133 932.3456,-188.874 939.0137,-191.0041"/>
</g>
<!-- title_word&#45;&gt;title_words -->
<g id="edge26" class="edge">
<title>title_word&#45;&gt;title_words</title>
<path fill="none" stroke="#000000" d="M971.014,-225.1285C1022.1763,-215.6663 1104.595,-199.6546 1184.8116,-180.1014"/>
<polygon fill="#000000" stroke="#000000" points="1185.7058,-183.4859 1194.581,-177.6995 1184.0345,-176.6883 1185.7058,-183.4859"/>
</g>
<!-- title_word&#45;&gt;word -->
<g id="edge27" class="edge">
<title>title_word&#45;&gt;word</title>
<path fill="none" stroke="#000000" d="M872.2688,-225.2904C797.808,-212.1245 661.8786,-188.0012 622.2718,-179.1087"/>
<polygon fill="#000000" stroke="#000000" points="622.8852,-175.6531 612.3302,-176.5702 621.1533,-182.4355 622.8852,-175.6531"/>
</g>
<!-- letter -->
<g id="node20" class="node">
<title>letter</title>
<polygon fill="#d3d3d3" stroke="#000000" points="679.1888,-252 622.0207,-252 622.0207,-216 679.1888,-216 679.1888,-252"/>
<text text-anchor="middle" x="650.6047" y="-228" font-family="Times,serif" font-size="20.00" fill="#000000">letter</text>
</g>
<!-- letter&#45;&gt;word -->
<g id="edge28" class="edge">
<title>letter&#45;&gt;word</title>
<path fill="none" stroke="#000000" d="M633.6978,-215.8314C625.8234,-207.3694 616.3127,-197.1489 607.7034,-187.8971"/>
<polygon fill="#000000" stroke="#000000" points="610.1139,-185.3497 600.7393,-180.4133 604.9894,-190.1183 610.1139,-185.3497"/>
</g>
<!-- lower_letter -->
<g id="node21" class="node">
<title>lower_letter</title>
<polygon fill="#d3d3d3" stroke="#000000" points="659.7264,-324 547.483,-324 547.483,-288 659.7264,-288 659.7264,-324"/>
<text text-anchor="middle" x="603.6047" y="-300" font-family="Times,serif" font-size="20.00" fill="#000000">lower_letter</text>
</g>
<!-- lower_letter&#45;&gt;lower_word -->
<g id="edge29" class="edge">
<title>lower_letter&#45;&gt;lower_word</title>
<path fill="none" stroke="#000000" d="M589.4735,-287.8314C583.0236,-279.5386 575.2602,-269.557 568.1795,-260.4533"/>
<polygon fill="#000000" stroke="#000000" points="570.8283,-258.158 561.9261,-252.4133 565.3028,-262.4556 570.8283,-258.158"/>
</g>
<!-- lower_letter&#45;&gt;letter -->
<g id="edge30" class="edge">
<title>lower_letter&#45;&gt;letter</title>
<path fill="none" stroke="#000000" d="M615.4648,-287.8314C620.7676,-279.7079 627.1284,-269.9637 632.972,-261.0118"/>
<polygon fill="#000000" stroke="#000000" points="636.0495,-262.7003 638.5849,-252.4133 630.1878,-258.8739 636.0495,-262.7003"/>
</g>
<!-- upper_letter -->
<g id="node22" class="node">
<title>upper_letter</title>
<polygon fill="#d3d3d3" stroke="#000000" points="800.7264,-324 688.483,-324 688.483,-288 800.7264,-288 800.7264,-324"/>
<text text-anchor="middle" x="744.6047" y="-300" font-family="Times,serif" font-size="20.00" fill="#000000">upper_letter</text>
</g>
<!-- upper_letter&#45;&gt;upper_word -->
<g id="edge31" class="edge">
<title>upper_letter&#45;&gt;upper_word</title>
<path fill="none" stroke="#000000" d="M746.8758,-287.8314C747.8383,-280.131 748.9829,-270.9743 750.0526,-262.4166"/>
<polygon fill="#000000" stroke="#000000" points="753.5356,-262.7702 751.303,-252.4133 746.5896,-261.9019 753.5356,-262.7702"/>
</g>
<!-- upper_letter&#45;&gt;title_word -->
<g id="edge32" class="edge">
<title>upper_letter&#45;&gt;title_word</title>
<path fill="none" stroke="#000000" d="M789.2693,-287.8314C813.1524,-278.1162 842.7337,-266.0831 867.8675,-255.8592"/>
<polygon fill="#000000" stroke="#000000" points="869.3172,-259.0481 877.2613,-252.038 866.6795,-252.564 869.3172,-259.0481"/>
</g>
<!-- upper_letter&#45;&gt;letter -->
<g id="edge33" class="edge">
<title>upper_letter&#45;&gt;letter</title>
<path fill="none" stroke="#000000" d="M720.8845,-287.8314C709.1953,-278.8779 694.9359,-267.9558 682.3238,-258.2955"/>
<polygon fill="#000000" stroke="#000000" points="684.3844,-255.4651 674.3173,-252.1628 680.1278,-261.0222 684.3844,-255.4651"/>
</g>
<!-- float -->
<g id="node23" class="node">
<title>float</title>
<polygon fill="#d3d3d3" stroke="#000000" points="390.6047,-252 336.6047,-252 336.6047,-216 390.6047,-216 390.6047,-252"/>
<text text-anchor="middle" x="363.6047" y="-228" font-family="Times,serif" font-size="20.00" fill="#000000">float</text>
</g>
<!-- float&#45;&gt;word -->
<g id="edge34" class="edge">
<title>float&#45;&gt;word</title>
<path fill="none" stroke="#000000" d="M390.8655,-227.3143C425.0126,-218.6394 485.3572,-202.3189 545.1679,-179.8799"/>
<polygon fill="#000000" stroke="#000000" points="546.6596,-183.0571 554.7584,-176.2263 544.1676,-176.5157 546.6596,-183.0571"/>
</g>
<!-- pos_float -->
<g id="node24" class="node">
<title>pos_float</title>
<polygon fill="#d3d3d3" stroke="#000000" points="454.4452,-324 364.7642,-324 364.7642,-288 454.4452,-288 454.4452,-324"/>
<text text-anchor="middle" x="409.6047" y="-300" font-family="Times,serif" font-size="20.00" fill="#000000">pos_float</text>
</g>
<!-- pos_float&#45;&gt;float -->
<g id="edge35" class="edge">
<title>pos_float&#45;&gt;float</title>
<path fill="none" stroke="#000000" d="M397.997,-287.8314C392.8069,-279.7079 386.5815,-269.9637 380.8622,-261.0118"/>
<polygon fill="#000000" stroke="#000000" points="383.7021,-258.9559 375.3687,-252.4133 377.8032,-262.7246 383.7021,-258.9559"/>
</g>
<!-- neg_float -->
<g id="node25" class="node">
<title>neg_float</title>
<polygon fill="#d3d3d3" stroke="#000000" points="275.0393,-324 184.1701,-324 184.1701,-288 275.0393,-288 275.0393,-324"/>
<text text-anchor="middle" x="229.6047" y="-300" font-family="Times,serif" font-size="20.00" fill="#000000">neg_float</text>
</g>
<!-- neg_float&#45;&gt;float -->
<g id="edge36" class="edge">
<title>neg_float&#45;&gt;float</title>
<path fill="none" stroke="#000000" d="M263.4186,-287.8314C282.9627,-277.33 307.5471,-264.1205 327.4713,-253.415"/>
<polygon fill="#000000" stroke="#000000" points="329.396,-256.3541 336.5483,-248.5378 326.0827,-250.1879 329.396,-256.3541"/>
</g>
<!-- int -->
<g id="node26" class="node">
<title>int</title>
<polygon fill="#d3d3d3" stroke="#000000" points="346.6047,-324 292.6047,-324 292.6047,-288 346.6047,-288 346.6047,-324"/>
<text text-anchor="middle" x="319.6047" y="-300" font-family="Times,serif" font-size="20.00" fill="#000000">int</text>
</g>
<!-- int&#45;&gt;float -->
<g id="edge37" class="edge">
<title>int&#45;&gt;float</title>
<path fill="none" stroke="#000000" d="M330.7078,-287.8314C335.6721,-279.7079 341.6269,-269.9637 347.0975,-261.0118"/>
<polygon fill="#000000" stroke="#000000" points="350.1241,-262.7712 352.3522,-252.4133 344.1511,-259.121 350.1241,-262.7712"/>
</g>
<!-- pos_int -->
<g id="node27" class="node">
<title>pos_int</title>
<polygon fill="#d3d3d3" stroke="#000000" points="520.0013,-396 445.2082,-396 445.2082,-360 520.0013,-360 520.0013,-396"/>
<text text-anchor="middle" x="482.6047" y="-372" font-family="Times,serif" font-size="20.00" fill="#000000">pos_int</text>
</g>
<!-- pos_int&#45;&gt;pos_ints -->
<g id="edge38" class="edge">
<title>pos_int&#45;&gt;pos_ints</title>
<path fill="none" stroke="#000000" d="M520.15,-373.2524C581.2387,-365.2033 705.7694,-347.4417 809.6047,-324 1031.9881,-273.7951 1088.0096,-251.8282 1308.5967,-180.2538"/>
<polygon fill="#000000" stroke="#000000" points="1309.7717,-183.5523 1318.2048,-177.1387 1307.6128,-176.8935 1309.7717,-183.5523"/>
</g>
<!-- pos_int&#45;&gt;formated_pos_ints -->
<g id="edge39" class="edge">
<title>pos_int&#45;&gt;formated_pos_ints</title>
<path fill="none" stroke="#000000" d="M481.5151,-359.85C479.7726,-341.0019 475.2599,-311.0962 463.6047,-288 444.3158,-249.7766 437.0585,-236.7437 399.6047,-216 318.4054,-171.0279 283.4067,-195.4589 187.4447,-180.0268"/>
<polygon fill="#000000" stroke="#000000" points="187.7858,-176.5342 177.3377,-178.2913 186.6011,-183.4332 187.7858,-176.5342"/>
</g>
<!-- pos_int&#45;&gt;pos_float -->
<g id="edge40" class="edge">
<title>pos_int&#45;&gt;pos_float</title>
<path fill="none" stroke="#000000" d="M464.1837,-359.8314C455.4518,-351.219 444.873,-340.7851 435.3624,-331.4048"/>
<polygon fill="#000000" stroke="#000000" points="437.5972,-328.6931 428.0198,-324.1628 432.6817,-333.6769 437.5972,-328.6931"/>
</g>
<!-- pos_int&#45;&gt;int -->
<g id="edge41" class="edge">
<title>pos_int&#45;&gt;int</title>
<path fill="none" stroke="#000000" d="M445.1063,-362.7679C421.764,-353.1267 390.9654,-340.1196 356.0898,-324.1078"/>
<polygon fill="#000000" stroke="#000000" points="357.1907,-320.761 346.6449,-319.7435 354.2545,-327.1154 357.1907,-320.761"/>
</g>
<!-- neg_int -->
<g id="node28" class="node">
<title>neg_int</title>
<polygon fill="#d3d3d3" stroke="#000000" points="357.5949,-396 281.6145,-396 281.6145,-360 357.5949,-360 357.5949,-396"/>
<text text-anchor="middle" x="319.6047" y="-372" font-family="Times,serif" font-size="20.00" fill="#000000">neg_int</text>
</g>
<!-- neg_int&#45;&gt;neg_float -->
<g id="edge42" class="edge">
<title>neg_int&#45;&gt;neg_float</title>
<path fill="none" stroke="#000000" d="M296.8939,-359.8314C285.8087,-350.9632 272.3093,-340.1637 260.3195,-330.5718"/>
<polygon fill="#000000" stroke="#000000" points="262.3034,-327.6768 252.3082,-324.1628 257.9305,-333.1429 262.3034,-327.6768"/>
</g>
<!-- neg_int&#45;&gt;int -->
<g id="edge43" class="edge">
<title>neg_int&#45;&gt;int</title>
<path fill="none" stroke="#000000" d="M319.6047,-359.8314C319.6047,-352.131 319.6047,-342.9743 319.6047,-334.4166"/>
<polygon fill="#000000" stroke="#000000" points="323.1048,-334.4132 319.6047,-324.4133 316.1048,-334.4133 323.1048,-334.4132"/>
</g>
<!-- url -->
<g id="node29" class="node">
<title>url</title>
<polygon fill="#d3d3d3" stroke="#000000" points="1153.6047,-396 1099.6047,-396 1099.6047,-360 1153.6047,-360 1153.6047,-396"/>
<text text-anchor="middle" x="1126.6047" y="-372" font-family="Times,serif" font-size="20.00" fill="#000000">url</text>
</g>
<!-- url&#45;&gt;any -->
<g id="edge44" class="edge">
<title>url&#45;&gt;any</title>
<path fill="none" stroke="#000000" d="M1153.671,-371.2902C1227.7972,-352.1292 1428.6047,-294.6271 1428.6047,-234 1428.6047,-234 1428.6047,-234 1428.6047,-162 1428.6047,-140.0844 1470.7568,-149.1167 1312.6047,-72 1260.3644,-46.5271 1194.2357,-31.4819 1153.6993,-23.9888"/>
<polygon fill="#000000" stroke="#000000" points="1154.1816,-20.5196 1143.7211,-22.2018 1152.9475,-27.41 1154.1816,-20.5196"/>
</g>
<!-- path -->
<g id="node30" class="node">
<title>path</title>
<polygon fill="#d3d3d3" stroke="#000000" points="1398.6047,-396 1344.6047,-396 1344.6047,-360 1398.6047,-360 1398.6047,-396"/>
<text text-anchor="middle" x="1371.6047" y="-372" font-family="Times,serif" font-size="20.00" fill="#000000">path</text>
</g>
<!-- path&#45;&gt;any -->
<g id="edge45" class="edge">
<title>path&#45;&gt;any</title>
<path fill="none" stroke="#000000" d="M1394.1184,-359.6157C1422.2112,-334.4589 1466.6047,-286.413 1466.6047,-234 1466.6047,-234 1466.6047,-234 1466.6047,-162 1466.6047,-100.1982 1415.9583,-99.4851 1360.6047,-72 1292.5431,-38.2049 1203.3986,-25.3762 1153.8791,-20.6438"/>
<polygon fill="#000000" stroke="#000000" points="1153.9148,-17.1331 1143.6426,-19.7278 1153.2908,-24.1052 1153.9148,-17.1331"/>
</g>
<!-- none -->
<g id="node31" class="node">
<title>none</title>
<polygon fill="#d3d3d3" stroke="#000000" points="630.9818,-468 576.2276,-468 576.2276,-432 630.9818,-432 630.9818,-468"/>
<text text-anchor="middle" x="603.6047" y="-444" font-family="Times,serif" font-size="20.00" fill="#000000">none</text>
</g>
<!-- none&#45;&gt;symbol -->
<g id="edge46" class="edge">
<title>none&#45;&gt;symbol</title>
<path fill="none" stroke="#000000" d="M575.8974,-445.8178C497.4496,-433.9766 273.1146,-400.1147 174.3103,-385.2008"/>
<polygon fill="#000000" stroke="#000000" points="174.7145,-381.7223 164.3041,-383.6905 173.6697,-388.6439 174.7145,-381.7223"/>
</g>
<!-- none&#45;&gt;lower_letter -->
<g id="edge47" class="edge">
<title>none&#45;&gt;lower_letter</title>
<path fill="none" stroke="#000000" d="M603.6047,-431.7623C603.6047,-407.201 603.6047,-363.2474 603.6047,-334.3541"/>
<polygon fill="#000000" stroke="#000000" points="607.1048,-334.0896 603.6047,-324.0896 600.1048,-334.0897 607.1048,-334.0896"/>
</g>
<!-- none&#45;&gt;upper_letter -->
<g id="edge48" class="edge">
<title>none&#45;&gt;upper_letter</title>
<path fill="none" stroke="#000000" d="M621.4625,-431.7623C646.3596,-406.3354 691.6071,-360.1253 719.7761,-331.3569"/>
<polygon fill="#000000" stroke="#000000" points="722.3965,-333.6834 726.892,-324.0896 717.3949,-328.7861 722.3965,-333.6834"/>
</g>
<!-- none&#45;&gt;pos_int -->
<g id="edge49" class="edge">
<title>none&#45;&gt;pos_int</title>
<path fill="none" stroke="#000000" d="M576.1479,-433.6621C560.1162,-424.1226 539.6192,-411.926 521.9002,-401.3824"/>
<polygon fill="#000000" stroke="#000000" points="523.3093,-398.1482 512.9259,-396.0423 519.7298,-404.1638 523.3093,-398.1482"/>
</g>
<!-- none&#45;&gt;neg_int -->
<g id="edge50" class="edge">
<title>none&#45;&gt;neg_int</title>
<path fill="none" stroke="#000000" d="M576.1155,-443.0309C527.9527,-430.8206 427.7491,-405.4169 367.831,-390.2264"/>
<polygon fill="#000000" stroke="#000000" points="368.4078,-386.762 357.8543,-387.6971 366.6876,-393.5473 368.4078,-386.762"/>
</g>
<!-- none&#45;&gt;url -->
<g id="edge51" class="edge">
<title>none&#45;&gt;url</title>
<path fill="none" stroke="#000000" d="M630.9871,-446.2303C718.1864,-434.2259 989.4974,-396.8752 1089.2857,-383.1376"/>
<polygon fill="#000000" stroke="#000000" points="1090.0642,-386.5635 1099.4934,-381.7323 1089.1095,-379.6289 1090.0642,-386.5635"/>
</g>
<!-- none&#45;&gt;path -->
<g id="edge52" class="edge">
<title>none&#45;&gt;path</title>
<path fill="none" stroke="#000000" d="M631.392,-447.3949C748.2984,-436.435 1200.3218,-394.0578 1334.1011,-381.516"/>
<polygon fill="#000000" stroke="#000000" points="1334.627,-384.9821 1344.2566,-380.5639 1333.9735,-378.0127 1334.627,-384.9821"/>
</g>
</g>
</svg>
