<?xml version="1.0" encoding="UTF-8" standalone="no"?>
<!DOCTYPE svg PUBLIC "-//W3C//DTD SVG 1.1//EN"
 "http://www.w3.org/Graphics/SVG/1.1/DTD/svg11.dtd">
<!-- Generated by graphviz version 2.40.1 (20161225.0304)
 -->
<!-- Title: %3 Pages: 1 -->
<svg width="720pt" height="154pt"
 viewBox="0.00 0.00 720.00 154.34" xmlns="http://www.w3.org/2000/svg" xmlns:xlink="http://www.w3.org/1999/xlink">
<g id="graph0" class="graph" transform="scale(.3243 .3243) rotate(0) translate(4 472)">
<title>%3</title>
<polygon fill="#ffffff" stroke="transparent" points="-4,4 -4,-472 2216.4879,-472 2216.4879,4 -4,4"/>
<!-- multiple_symbols -->
<g id="node1" class="node">
<title>multiple_symbols</title>
<ellipse fill="none" stroke="#000000" cx="73.4879" cy="-90" rx="73.4757" ry="18"/>
<text text-anchor="middle" x="73.4879" y="-85.8" font-family="Times,serif" font-size="14.00" fill="#000000">multiple_symbols</text>
</g>
<!-- any -->
<g id="node2" class="node">
<title>any</title>
<ellipse fill="none" stroke="#000000" cx="1609.4879" cy="-18" rx="27" ry="18"/>
<text text-anchor="middle" x="1609.4879" y="-13.8" font-family="Times,serif" font-size="14.00" fill="#000000">any</text>
</g>
<!-- multiple_symbols&#45;&gt;any -->
<g id="edge1" class="edge">
<title>multiple_symbols&#45;&gt;any</title>
<path fill="none" stroke="#000000" d="M145.7683,-86.6119C417.3618,-73.8809 1371.5412,-29.1538 1572.2597,-19.7451"/>
<polygon fill="#000000" stroke="#000000" points="1572.4769,-23.2388 1582.302,-19.2743 1572.149,-16.2465 1572.4769,-23.2388"/>
</g>
<!-- symbol -->
<g id="node3" class="node">
<title>symbol</title>
<ellipse fill="none" stroke="#000000" cx="234.4879" cy="-378" rx="36.2992" ry="18"/>
<text text-anchor="middle" x="234.4879" y="-373.8" font-family="Times,serif" font-size="14.00" fill="#000000">symbol</text>
</g>
<!-- symbol&#45;&gt;multiple_symbols -->
<g id="edge2" class="edge">
<title>symbol&#45;&gt;multiple_symbols</title>
<path fill="none" stroke="#000000" d="M209.2085,-365.1119C160.046,-338.4258 52.7657,-271.8509 11.4879,-180 4.9293,-165.406 4.8597,-158.5626 11.4879,-144 16.9936,-131.9034 26.696,-121.4628 36.814,-113.0737"/>
<polygon fill="#000000" stroke="#000000" points="39.1706,-115.676 44.9452,-106.7932 34.8916,-110.1361 39.1706,-115.676"/>
</g>
<!-- multiple_words -->
<g id="node4" class="node">
<title>multiple_words</title>
<ellipse fill="none" stroke="#000000" cx="1609.4879" cy="-90" rx="65.7408" ry="18"/>
<text text-anchor="middle" x="1609.4879" y="-85.8" font-family="Times,serif" font-size="14.00" fill="#000000">multiple_words</text>
</g>
<!-- multiple_words&#45;&gt;any -->
<g id="edge3" class="edge">
<title>multiple_words&#45;&gt;any</title>
<path fill="none" stroke="#000000" d="M1609.4879,-71.8314C1609.4879,-64.131 1609.4879,-54.9743 1609.4879,-46.4166"/>
<polygon fill="#000000" stroke="#000000" points="1612.988,-46.4132 1609.4879,-36.4133 1605.988,-46.4133 1612.988,-46.4132"/>
</g>
<!-- multiple_formated_words -->
<g id="node5" class="node">
<title>multiple_formated_words</title>
<ellipse fill="none" stroke="#000000" cx="985.4879" cy="-90" rx="101.9228" ry="18"/>
<text text-anchor="middle" x="985.4879" y="-85.8" font-family="Times,serif" font-size="14.00" fill="#000000">multiple_formated_words</text>
</g>
<!-- multiple_formated_words&#45;&gt;any -->
<g id="edge4" class="edge">
<title>multiple_formated_words&#45;&gt;any</title>
<path fill="none" stroke="#000000" d="M1070.944,-80.1397C1208.9426,-64.2168 1475.2292,-33.4914 1572.64,-22.2517"/>
<polygon fill="#000000" stroke="#000000" points="1573.0683,-25.7256 1582.6011,-21.1023 1572.2658,-18.7717 1573.0683,-25.7256"/>
</g>
<!-- multiple_formated_lowercase_words -->
<g id="node6" class="node">
<title>multiple_formated_lowercase_words</title>
<ellipse fill="none" stroke="#000000" cx="461.4879" cy="-162" rx="141.9712" ry="18"/>
<text text-anchor="middle" x="461.4879" y="-157.8" font-family="Times,serif" font-size="14.00" fill="#000000">multiple_formated_lowercase_words</text>
</g>
<!-- multiple_formated_lowercase_words&#45;&gt;multiple_formated_words -->
<g id="edge5" class="edge">
<title>multiple_formated_lowercase_words&#45;&gt;multiple_formated_words</title>
<path fill="none" stroke="#000000" d="M557.9027,-148.7522C654.0137,-135.5461 800.4989,-115.4183 894.6147,-102.4864"/>
<polygon fill="#000000" stroke="#000000" points="895.2586,-105.9309 904.6891,-101.1021 894.3057,-98.996 895.2586,-105.9309"/>
</g>
<!-- multiple_lowercase_words -->
<g id="node7" class="node">
<title>multiple_lowercase_words</title>
<ellipse fill="none" stroke="#000000" cx="726.4879" cy="-162" rx="105.2887" ry="18"/>
<text text-anchor="middle" x="726.4879" y="-157.8" font-family="Times,serif" font-size="14.00" fill="#000000">multiple_lowercase_words</text>
</g>
<!-- multiple_lowercase_words&#45;&gt;multiple_words -->
<g id="edge6" class="edge">
<title>multiple_lowercase_words&#45;&gt;multiple_words</title>
<path fill="none" stroke="#000000" d="M801.5235,-149.3136C814.8107,-147.3363 828.5362,-145.4663 841.4879,-144 1094.8003,-115.3226 1396.954,-99.4026 1534.5676,-93.1485"/>
<polygon fill="#000000" stroke="#000000" points="1534.7542,-96.6438 1544.5865,-92.6971 1534.4391,-89.6509 1534.7542,-96.6438"/>
</g>
<!-- multiple_formated_uppercase_words -->
<g id="node8" class="node">
<title>multiple_formated_uppercase_words</title>
<ellipse fill="none" stroke="#000000" cx="1066.4879" cy="-162" rx="141.9712" ry="18"/>
<text text-anchor="middle" x="1066.4879" y="-157.8" font-family="Times,serif" font-size="14.00" fill="#000000">multiple_formated_uppercase_words</text>
</g>
<!-- multiple_formated_uppercase_words&#45;&gt;multiple_formated_words -->
<g id="edge7" class="edge">
<title>multiple_formated_uppercase_words&#45;&gt;multiple_formated_words</title>
<path fill="none" stroke="#000000" d="M1046.0482,-143.8314C1036.0166,-134.9144 1023.7882,-124.0447 1012.9531,-114.4135"/>
<polygon fill="#000000" stroke="#000000" points="1015.1604,-111.6928 1005.361,-107.665 1010.5099,-116.9246 1015.1604,-111.6928"/>
</g>
<!-- multiple_uppercase_words -->
<g id="node9" class="node">
<title>multiple_uppercase_words</title>
<ellipse fill="none" stroke="#000000" cx="1609.4879" cy="-162" rx="105.2887" ry="18"/>
<text text-anchor="middle" x="1609.4879" y="-157.8" font-family="Times,serif" font-size="14.00" fill="#000000">multiple_uppercase_words</text>
</g>
<!-- multiple_uppercase_words&#45;&gt;multiple_words -->
<g id="edge8" class="edge">
<title>multiple_uppercase_words&#45;&gt;multiple_words</title>
<path fill="none" stroke="#000000" d="M1609.4879,-143.8314C1609.4879,-136.131 1609.4879,-126.9743 1609.4879,-118.4166"/>
<polygon fill="#000000" stroke="#000000" points="1612.988,-118.4132 1609.4879,-108.4133 1605.988,-118.4133 1612.988,-118.4132"/>
</g>
<!-- multiple_formated_capital_words -->
<g id="node10" class="node">
<title>multiple_formated_capital_words</title>
<ellipse fill="none" stroke="#000000" cx="1356.4879" cy="-162" rx="129.9027" ry="18"/>
<text text-anchor="middle" x="1356.4879" y="-157.8" font-family="Times,serif" font-size="14.00" fill="#000000">multiple_formated_capital_words</text>
</g>
<!-- multiple_formated_capital_words&#45;&gt;multiple_formated_words -->
<g id="edge9" class="edge">
<title>multiple_formated_capital_words&#45;&gt;multiple_formated_words</title>
<path fill="none" stroke="#000000" d="M1280.9633,-147.3429C1217.9165,-135.1074 1128.3432,-117.7239 1064.376,-105.3098"/>
<polygon fill="#000000" stroke="#000000" points="1064.8212,-101.831 1054.3375,-103.3617 1063.4876,-108.7028 1064.8212,-101.831"/>
</g>
<!-- multiple_capital_words -->
<g id="node11" class="node">
<title>multiple_capital_words</title>
<ellipse fill="none" stroke="#000000" cx="1826.4879" cy="-162" rx="93.7206" ry="18"/>
<text text-anchor="middle" x="1826.4879" y="-157.8" font-family="Times,serif" font-size="14.00" fill="#000000">multiple_capital_words</text>
</g>
<!-- multiple_capital_words&#45;&gt;multiple_words -->
<g id="edge10" class="edge">
<title>multiple_capital_words&#45;&gt;multiple_words</title>
<path fill="none" stroke="#000000" d="M1779.4021,-146.3771C1744.5368,-134.8088 1697.056,-119.0549 1661.1485,-107.1409"/>
<polygon fill="#000000" stroke="#000000" points="1661.9412,-103.7163 1651.3477,-103.889 1659.7367,-110.3601 1661.9412,-103.7163"/>
</g>
<!-- multiple_integers -->
<g id="node12" class="node">
<title>multiple_integers</title>
<ellipse fill="none" stroke="#000000" cx="1904.4879" cy="-90" rx="71.9963" ry="18"/>
<text text-anchor="middle" x="1904.4879" y="-85.8" font-family="Times,serif" font-size="14.00" fill="#000000">multiple_integers</text>
</g>
<!-- multiple_integers&#45;&gt;any -->
<g id="edge11" class="edge">
<title>multiple_integers&#45;&gt;any</title>
<path fill="none" stroke="#000000" d="M1852.7652,-77.3762C1793.0923,-62.8119 1696.5729,-39.2546 1644.8691,-26.6354"/>
<polygon fill="#000000" stroke="#000000" points="1645.3925,-23.1605 1634.8478,-24.1895 1643.7327,-29.9609 1645.3925,-23.1605"/>
</g>
<!-- multiple_formated_integers -->
<g id="node13" class="node">
<title>multiple_formated_integers</title>
<ellipse fill="none" stroke="#000000" cx="596.4879" cy="-90" rx="108.1787" ry="18"/>
<text text-anchor="middle" x="596.4879" y="-85.8" font-family="Times,serif" font-size="14.00" fill="#000000">multiple_formated_integers</text>
</g>
<!-- multiple_formated_integers&#45;&gt;any -->
<g id="edge12" class="edge">
<title>multiple_formated_integers&#45;&gt;any</title>
<path fill="none" stroke="#000000" d="M696.3906,-82.8993C915.3046,-67.3398 1429.1617,-30.8169 1572.0436,-20.6614"/>
<polygon fill="#000000" stroke="#000000" points="1572.717,-24.1225 1582.4436,-19.9222 1572.2206,-17.1401 1572.717,-24.1225"/>
</g>
<!-- multiple_positive_integers -->
<g id="node14" class="node">
<title>multiple_positive_integers</title>
<ellipse fill="none" stroke="#000000" cx="2042.4879" cy="-162" rx="104.3455" ry="18"/>
<text text-anchor="middle" x="2042.4879" y="-157.8" font-family="Times,serif" font-size="14.00" fill="#000000">multiple_positive_integers</text>
</g>
<!-- multiple_positive_integers&#45;&gt;multiple_words -->
<g id="edge13" class="edge">
<title>multiple_positive_integers&#45;&gt;multiple_words</title>
<path fill="none" stroke="#000000" d="M1967.065,-149.4586C1884.8606,-135.7895 1754.5934,-114.1284 1676.0536,-101.0687"/>
<polygon fill="#000000" stroke="#000000" points="1676.2354,-97.5509 1665.7967,-99.3631 1675.0871,-104.4561 1676.2354,-97.5509"/>
</g>
<!-- multiple_positive_integers&#45;&gt;multiple_integers -->
<g id="edge14" class="edge">
<title>multiple_positive_integers&#45;&gt;multiple_integers</title>
<path fill="none" stroke="#000000" d="M2009.4334,-144.7542C1990.0719,-134.6526 1965.4716,-121.8176 1944.9559,-111.1138"/>
<polygon fill="#000000" stroke="#000000" points="1946.3356,-107.8859 1935.8507,-106.3632 1943.0976,-114.092 1946.3356,-107.8859"/>
</g>
<!-- multiple_formated_positive_integers -->
<g id="node15" class="node">
<title>multiple_formated_positive_integers</title>
<ellipse fill="none" stroke="#000000" cx="161.4879" cy="-162" rx="140.5281" ry="18"/>
<text text-anchor="middle" x="161.4879" y="-157.8" font-family="Times,serif" font-size="14.00" fill="#000000">multiple_formated_positive_integers</text>
</g>
<!-- multiple_formated_positive_integers&#45;&gt;multiple_formated_words -->
<g id="edge15" class="edge">
<title>multiple_formated_positive_integers&#45;&gt;multiple_formated_words</title>
<path fill="none" stroke="#000000" d="M261.6118,-149.3417C277.9351,-147.44 294.6731,-145.5872 310.4879,-144 511.5628,-123.8199 746.9456,-106.3933 879.9032,-97.1211"/>
<polygon fill="#000000" stroke="#000000" points="880.3506,-100.5985 890.0837,-96.4131 879.8649,-93.6154 880.3506,-100.5985"/>
</g>
<!-- multiple_formated_positive_integers&#45;&gt;multiple_formated_integers -->
<g id="edge16" class="edge">
<title>multiple_formated_positive_integers&#45;&gt;multiple_formated_integers</title>
<path fill="none" stroke="#000000" d="M247.6898,-147.7321C323.5441,-135.1769 433.4466,-116.9861 509.5269,-104.3935"/>
<polygon fill="#000000" stroke="#000000" points="510.2696,-107.8183 519.5638,-102.7323 509.1264,-100.9123 510.2696,-107.8183"/>
</g>
<!-- word -->
<g id="node16" class="node">
<title>word</title>
<ellipse fill="none" stroke="#000000" cx="878.4879" cy="-162" rx="28.0651" ry="18"/>
<text text-anchor="middle" x="878.4879" y="-157.8" font-family="Times,serif" font-size="14.00" fill="#000000">word</text>
</g>
<!-- word&#45;&gt;multiple_words -->
<g id="edge17" class="edge">
<title>word&#45;&gt;multiple_words</title>
<path fill="none" stroke="#000000" d="M899.8706,-149.9279C904.8593,-147.5876 910.2487,-145.423 915.4879,-144 1030.277,-112.8216 1378.8855,-97.6631 1533.8477,-92.3228"/>
<polygon fill="#000000" stroke="#000000" points="1534.3423,-95.8081 1544.2175,-91.9701 1534.1043,-88.8121 1534.3423,-95.8081"/>
</g>
<!-- word&#45;&gt;multiple_formated_words -->
<g id="edge18" class="edge">
<title>word&#45;&gt;multiple_formated_words</title>
<path fill="none" stroke="#000000" d="M898.1133,-148.7941C912.9418,-138.816 933.6683,-124.8693 951.2131,-113.0634"/>
<polygon fill="#000000" stroke="#000000" points="953.1881,-115.9531 959.5307,-107.4665 949.2801,-110.1455 953.1881,-115.9531"/>
</g>
<!-- lowercase_word -->
<g id="node17" class="node">
<title>lowercase_word</title>
<ellipse fill="none" stroke="#000000" cx="858.4879" cy="-234" rx="68.1115" ry="18"/>
<text text-anchor="middle" x="858.4879" y="-229.8" font-family="Times,serif" font-size="14.00" fill="#000000">lowercase_word</text>
</g>
<!-- lowercase_word&#45;&gt;multiple_formated_lowercase_words -->
<g id="edge19" class="edge">
<title>lowercase_word&#45;&gt;multiple_formated_lowercase_words</title>
<path fill="none" stroke="#000000" d="M806.5089,-222.2099C796.5603,-220.0611 786.215,-217.9003 776.4879,-216 704.3991,-201.9166 622.6339,-187.9588 560.4767,-177.7626"/>
<polygon fill="#000000" stroke="#000000" points="560.7171,-174.2555 550.2832,-176.0953 559.5871,-181.1637 560.7171,-174.2555"/>
</g>
<!-- lowercase_word&#45;&gt;multiple_lowercase_words -->
<g id="edge20" class="edge">
<title>lowercase_word&#45;&gt;multiple_lowercase_words</title>
<path fill="none" stroke="#000000" d="M828.535,-217.6621C810.3292,-207.7316 786.8447,-194.9219 766.9951,-184.0949"/>
<polygon fill="#000000" stroke="#000000" points="768.6178,-180.9932 758.1629,-179.2773 765.2658,-187.1385 768.6178,-180.9932"/>
</g>
<!-- lowercase_word&#45;&gt;word -->
<g id="edge21" class="edge">
<title>lowercase_word&#45;&gt;word</title>
<path fill="none" stroke="#000000" d="M863.5347,-215.8314C865.7305,-207.9266 868.3525,-198.4872 870.7833,-189.7365"/>
<polygon fill="#000000" stroke="#000000" points="874.2077,-190.4854 873.5119,-179.9134 867.4631,-188.6118 874.2077,-190.4854"/>
</g>
<!-- uppercase_word -->
<g id="node18" class="node">
<title>uppercase_word</title>
<ellipse fill="none" stroke="#000000" cx="1086.4879" cy="-234" rx="68.1115" ry="18"/>
<text text-anchor="middle" x="1086.4879" y="-229.8" font-family="Times,serif" font-size="14.00" fill="#000000">uppercase_word</text>
</g>
<!-- uppercase_word&#45;&gt;multiple_formated_uppercase_words -->
<g id="edge22" class="edge">
<title>uppercase_word&#45;&gt;multiple_formated_uppercase_words</title>
<path fill="none" stroke="#000000" d="M1081.441,-215.8314C1079.2785,-208.0463 1076.7026,-198.7729 1074.3031,-190.1347"/>
<polygon fill="#000000" stroke="#000000" points="1077.6515,-189.1117 1071.6027,-180.4133 1070.9069,-190.9852 1077.6515,-189.1117"/>
</g>
<!-- uppercase_word&#45;&gt;multiple_uppercase_words -->
<g id="edge23" class="edge">
<title>uppercase_word&#45;&gt;multiple_uppercase_words</title>
<path fill="none" stroke="#000000" d="M1148.2239,-226.3437C1228.3592,-216.2921 1372.5067,-197.8247 1495.4879,-180 1504.3709,-178.7125 1513.6359,-177.3244 1522.8771,-175.9104"/>
<polygon fill="#000000" stroke="#000000" points="1523.5261,-179.3518 1532.8763,-174.3694 1522.4599,-172.4335 1523.5261,-179.3518"/>
</g>
<!-- uppercase_word&#45;&gt;word -->
<g id="edge24" class="edge">
<title>uppercase_word&#45;&gt;word</title>
<path fill="none" stroke="#000000" d="M1039.0224,-221.0455C1004.3362,-211.0899 956.4089,-196.3125 915.4879,-180 913.6465,-179.266 911.7696,-178.4796 909.8864,-177.6608"/>
<polygon fill="#000000" stroke="#000000" points="911.1043,-174.369 900.5548,-173.3894 908.1908,-180.7339 911.1043,-174.369"/>
</g>
<!-- capital_word -->
<g id="node19" class="node">
<title>capital_word</title>
<ellipse fill="none" stroke="#000000" cx="1302.4879" cy="-234" rx="56.0441" ry="18"/>
<text text-anchor="middle" x="1302.4879" y="-229.8" font-family="Times,serif" font-size="14.00" fill="#000000">capital_word</text>
</g>
<!-- capital_word&#45;&gt;multiple_formated_capital_words -->
<g id="edge25" class="edge">
<title>capital_word&#45;&gt;multiple_formated_capital_words</title>
<path fill="none" stroke="#000000" d="M1315.8362,-216.2022C1322.149,-207.7851 1329.813,-197.5665 1336.7775,-188.2805"/>
<polygon fill="#000000" stroke="#000000" points="1339.718,-190.1932 1342.918,-180.0931 1334.118,-185.9931 1339.718,-190.1932"/>
</g>
<!-- capital_word&#45;&gt;multiple_capital_words -->
<g id="edge26" class="edge">
<title>capital_word&#45;&gt;multiple_capital_words</title>
<path fill="none" stroke="#000000" d="M1355.7629,-227.9532C1435.7631,-218.6953 1591.6141,-199.9699 1723.4879,-180 1731.463,-178.7923 1739.7726,-177.4616 1748.0604,-176.0869"/>
<polygon fill="#000000" stroke="#000000" points="1748.8533,-179.5028 1758.1348,-174.3937 1747.693,-172.5997 1748.8533,-179.5028"/>
</g>
<!-- capital_word&#45;&gt;word -->
<g id="edge27" class="edge">
<title>capital_word&#45;&gt;word</title>
<path fill="none" stroke="#000000" d="M1250.1269,-227.1356C1148.1243,-213.702 931.326,-184.825 915.4879,-180 913.5404,-179.4067 911.5679,-178.7224 909.6002,-177.9748"/>
<polygon fill="#000000" stroke="#000000" points="910.5089,-174.5565 899.9386,-173.8362 907.7526,-180.991 910.5089,-174.5565"/>
</g>
<!-- letter -->
<g id="node20" class="node">
<title>letter</title>
<ellipse fill="none" stroke="#000000" cx="972.4879" cy="-234" rx="28.0479" ry="18"/>
<text text-anchor="middle" x="972.4879" y="-229.8" font-family="Times,serif" font-size="14.00" fill="#000000">letter</text>
</g>
<!-- letter&#45;&gt;word -->
<g id="edge28" class="edge">
<title>letter&#45;&gt;word</title>
<path fill="none" stroke="#000000" d="M954.3637,-220.1177C940.4093,-209.4292 920.9103,-194.4937 905.1736,-182.4401"/>
<polygon fill="#000000" stroke="#000000" points="906.9442,-179.3876 896.8771,-176.0854 902.6876,-184.9448 906.9442,-179.3876"/>
</g>
<!-- lowercase_letter -->
<g id="node21" class="node">
<title>lowercase_letter</title>
<ellipse fill="none" stroke="#000000" cx="913.4879" cy="-306" rx="68.0942" ry="18"/>
<text text-anchor="middle" x="913.4879" y="-301.8" font-family="Times,serif" font-size="14.00" fill="#000000">lowercase_letter</text>
</g>
<!-- lowercase_letter&#45;&gt;lowercase_word -->
<g id="edge29" class="edge">
<title>lowercase_letter&#45;&gt;lowercase_word</title>
<path fill="none" stroke="#000000" d="M899.8924,-288.2022C893.4139,-279.7214 885.5384,-269.4115 878.4021,-260.0696"/>
<polygon fill="#000000" stroke="#000000" points="880.9694,-257.6646 872.1176,-251.8425 875.4067,-261.9139 880.9694,-257.6646"/>
</g>
<!-- lowercase_letter&#45;&gt;letter -->
<g id="edge30" class="edge">
<title>lowercase_letter&#45;&gt;letter</title>
<path fill="none" stroke="#000000" d="M928.0721,-288.2022C935.5368,-279.0928 944.7306,-267.8733 952.8134,-258.0096"/>
<polygon fill="#000000" stroke="#000000" points="955.6482,-260.0722 959.2793,-250.119 950.2338,-255.6354 955.6482,-260.0722"/>
</g>
<!-- uppercase_letter -->
<g id="node22" class="node">
<title>uppercase_letter</title>
<ellipse fill="none" stroke="#000000" cx="1077.4879" cy="-306" rx="68.0942" ry="18"/>
<text text-anchor="middle" x="1077.4879" y="-301.8" font-family="Times,serif" font-size="14.00" fill="#000000">uppercase_letter</text>
</g>
<!-- uppercase_letter&#45;&gt;uppercase_word -->
<g id="edge31" class="edge">
<title>uppercase_letter&#45;&gt;uppercase_word</title>
<path fill="none" stroke="#000000" d="M1079.759,-287.8314C1080.7215,-280.131 1081.8661,-270.9743 1082.9358,-262.4166"/>
<polygon fill="#000000" stroke="#000000" points="1086.4188,-262.7702 1084.1862,-252.4133 1079.4728,-261.9019 1086.4188,-262.7702"/>
</g>
<!-- uppercase_letter&#45;&gt;capital_word -->
<g id="edge32" class="edge">
<title>uppercase_letter&#45;&gt;capital_word</title>
<path fill="none" stroke="#000000" d="M1120.8701,-292.1177C1158.6594,-280.0251 1213.4361,-262.4966 1252.9402,-249.8553"/>
<polygon fill="#000000" stroke="#000000" points="1254.1774,-253.1343 1262.6349,-246.753 1252.0439,-246.4673 1254.1774,-253.1343"/>
</g>
<!-- uppercase_letter&#45;&gt;letter -->
<g id="edge33" class="edge">
<title>uppercase_letter&#45;&gt;letter</title>
<path fill="none" stroke="#000000" d="M1052.87,-289.1192C1037.22,-278.3878 1016.9133,-264.4632 1000.626,-253.2947"/>
<polygon fill="#000000" stroke="#000000" points="1002.2729,-250.1802 992.0462,-247.4114 998.3141,-255.9533 1002.2729,-250.1802"/>
</g>
<!-- number -->
<g id="node23" class="node">
<title>number</title>
<ellipse fill="none" stroke="#000000" cx="621.4879" cy="-234" rx="37.2421" ry="18"/>
<text text-anchor="middle" x="621.4879" y="-229.8" font-family="Times,serif" font-size="14.00" fill="#000000">number</text>
</g>
<!-- number&#45;&gt;word -->
<g id="edge34" class="edge">
<title>number&#45;&gt;word</title>
<path fill="none" stroke="#000000" d="M656.2559,-227.671C699.9872,-219.203 777.0356,-202.5928 840.4879,-180 842.6111,-179.244 844.775,-178.4085 846.9388,-177.5237"/>
<polygon fill="#000000" stroke="#000000" points="848.5438,-180.6418 856.2984,-173.4226 845.7344,-174.2302 848.5438,-180.6418"/>
</g>
<!-- positive_number -->
<g id="node24" class="node">
<title>positive_number</title>
<ellipse fill="none" stroke="#000000" cx="682.4879" cy="-306" rx="69.5909" ry="18"/>
<text text-anchor="middle" x="682.4879" y="-301.8" font-family="Times,serif" font-size="14.00" fill="#000000">positive_number</text>
</g>
<!-- positive_number&#45;&gt;number -->
<g id="edge35" class="edge">
<title>positive_number&#45;&gt;number</title>
<path fill="none" stroke="#000000" d="M667.4092,-288.2022C659.912,-279.3531 650.7278,-268.5127 642.5483,-258.8583"/>
<polygon fill="#000000" stroke="#000000" points="645.1077,-256.4646 635.973,-251.0972 639.7668,-260.9896 645.1077,-256.4646"/>
</g>
<!-- negative_number -->
<g id="node25" class="node">
<title>negative_number</title>
<ellipse fill="none" stroke="#000000" cx="436.4879" cy="-306" rx="71.4945" ry="18"/>
<text text-anchor="middle" x="436.4879" y="-301.8" font-family="Times,serif" font-size="14.00" fill="#000000">negative_number</text>
</g>
<!-- negative_number&#45;&gt;number -->
<g id="edge36" class="edge">
<title>negative_number&#45;&gt;number</title>
<path fill="none" stroke="#000000" d="M475.7216,-290.7307C507.2091,-278.4761 551.1885,-261.3598 582.5874,-249.1396"/>
<polygon fill="#000000" stroke="#000000" points="584.2584,-252.2451 592.308,-245.3565 581.7195,-245.7217 584.2584,-252.2451"/>
</g>
<!-- integer -->
<g id="node26" class="node">
<title>integer</title>
<ellipse fill="none" stroke="#000000" cx="560.4879" cy="-306" rx="34.8198" ry="18"/>
<text text-anchor="middle" x="560.4879" y="-301.8" font-family="Times,serif" font-size="14.00" fill="#000000">integer</text>
</g>
<!-- integer&#45;&gt;number -->
<g id="edge37" class="edge">
<title>integer&#45;&gt;number</title>
<path fill="none" stroke="#000000" d="M574.6358,-289.3008C582.3007,-280.2537 591.9218,-268.8977 600.4481,-258.8338"/>
<polygon fill="#000000" stroke="#000000" points="603.1993,-261.001 606.9931,-251.1086 597.8584,-256.476 603.1993,-261.001"/>
</g>
<!-- positive_integer -->
<g id="node27" class="node">
<title>positive_integer</title>
<ellipse fill="none" stroke="#000000" cx="780.4879" cy="-378" rx="67.1684" ry="18"/>
<text text-anchor="middle" x="780.4879" y="-373.8" font-family="Times,serif" font-size="14.00" fill="#000000">positive_integer</text>
</g>
<!-- positive_integer&#45;&gt;multiple_positive_integers -->
<g id="edge38" class="edge">
<title>positive_integer&#45;&gt;multiple_positive_integers</title>
<path fill="none" stroke="#000000" d="M840.8346,-369.9875C914.8521,-359.9983 1044.0964,-342.0326 1154.4879,-324 1453.9488,-275.0827 1808.4039,-207.4891 1963.3563,-177.4539"/>
<polygon fill="#000000" stroke="#000000" points="1964.1211,-180.8709 1973.2715,-175.5304 1962.7879,-173.999 1964.1211,-180.8709"/>
</g>
<!-- positive_integer&#45;&gt;multiple_formated_positive_integers -->
<g id="edge39" class="edge">
<title>positive_integer&#45;&gt;multiple_formated_positive_integers</title>
<path fill="none" stroke="#000000" d="M780.2843,-359.7144C779.2785,-340.4844 775.3722,-310.018 761.4879,-288 733.418,-243.4863 716.4158,-235.3763 667.4879,-216 519.2197,-157.2832 468.989,-197.5638 310.4879,-180 298.3291,-178.6527 285.6187,-177.1941 272.9678,-175.7105"/>
<polygon fill="#000000" stroke="#000000" points="273.1876,-172.2122 262.8465,-174.5168 272.3677,-179.164 273.1876,-172.2122"/>
</g>
<!-- positive_integer&#45;&gt;positive_number -->
<g id="edge40" class="edge">
<title>positive_integer&#45;&gt;positive_number</title>
<path fill="none" stroke="#000000" d="M757.2632,-360.937C744.42,-351.5012 728.2742,-339.6389 714.2754,-329.3541"/>
<polygon fill="#000000" stroke="#000000" points="716.0165,-326.2902 705.8854,-323.19 711.872,-331.9314 716.0165,-326.2902"/>
</g>
<!-- positive_integer&#45;&gt;integer -->
<g id="edge41" class="edge">
<title>positive_integer&#45;&gt;integer</title>
<path fill="none" stroke="#000000" d="M733.4837,-365.0524C697.5695,-354.825 647.0053,-339.7018 603.4879,-324 601.2398,-323.1889 598.9381,-322.3253 596.6252,-321.4323"/>
<polygon fill="#000000" stroke="#000000" points="597.7468,-318.1115 587.1619,-317.6535 595.151,-324.6124 597.7468,-318.1115"/>
</g>
<!-- negative_integer -->
<g id="node28" class="node">
<title>negative_integer</title>
<ellipse fill="none" stroke="#000000" cx="560.4879" cy="-378" rx="69.0718" ry="18"/>
<text text-anchor="middle" x="560.4879" y="-373.8" font-family="Times,serif" font-size="14.00" fill="#000000">negative_integer</text>
</g>
<!-- negative_integer&#45;&gt;negative_number -->
<g id="edge42" class="edge">
<title>negative_integer&#45;&gt;negative_number</title>
<path fill="none" stroke="#000000" d="M532.0398,-361.4817C514.8346,-351.4916 492.6965,-338.6373 474.0623,-327.8174"/>
<polygon fill="#000000" stroke="#000000" points="475.6384,-324.6854 465.233,-322.6907 472.1234,-330.7389 475.6384,-324.6854"/>
</g>
<!-- negative_integer&#45;&gt;integer -->
<g id="edge43" class="edge">
<title>negative_integer&#45;&gt;integer</title>
<path fill="none" stroke="#000000" d="M560.4879,-359.8314C560.4879,-352.131 560.4879,-342.9743 560.4879,-334.4166"/>
<polygon fill="#000000" stroke="#000000" points="563.988,-334.4132 560.4879,-324.4133 556.988,-334.4133 563.988,-334.4132"/>
</g>
<!-- url -->
<g id="node29" class="node">
<title>url</title>
<ellipse fill="none" stroke="#000000" cx="1658.4879" cy="-378" rx="27" ry="18"/>
<text text-anchor="middle" x="1658.4879" y="-373.8" font-family="Times,serif" font-size="14.00" fill="#000000">url</text>
</g>
<!-- url&#45;&gt;any -->
<g id="edge44" class="edge">
<title>url&#45;&gt;any</title>
<path fill="none" stroke="#000000" d="M1685.5038,-376.3761C1791.6746,-369.2703 2174.4879,-336.5395 2174.4879,-234 2174.4879,-234 2174.4879,-234 2174.4879,-162 2174.4879,-52.8212 1773.325,-25.3935 1647.0618,-19.4647"/>
<polygon fill="#000000" stroke="#000000" points="1646.8864,-15.9533 1636.739,-18.9996 1646.5713,-22.9462 1646.8864,-15.9533"/>
</g>
<!-- path -->
<g id="node30" class="node">
<title>path</title>
<ellipse fill="none" stroke="#000000" cx="2008.4879" cy="-378" rx="27" ry="18"/>
<text text-anchor="middle" x="2008.4879" y="-373.8" font-family="Times,serif" font-size="14.00" fill="#000000">path</text>
</g>
<!-- path&#45;&gt;any -->
<g id="edge45" class="edge">
<title>path&#45;&gt;any</title>
<path fill="none" stroke="#000000" d="M2034.3246,-372.5929C2089.2182,-359.4307 2212.4879,-320.2692 2212.4879,-234 2212.4879,-234 2212.4879,-234 2212.4879,-162 2212.4879,-99.1759 2161.3638,-96.4385 2103.4879,-72 2020.9552,-37.1501 1747.2108,-23.3051 1646.8179,-19.3204"/>
<polygon fill="#000000" stroke="#000000" points="1646.6796,-15.8125 1636.5518,-18.9236 1646.4092,-22.8073 1646.6796,-15.8125"/>
</g>
<!-- none -->
<g id="node31" class="node">
<title>none</title>
<ellipse fill="none" stroke="#000000" cx="913.4879" cy="-450" rx="27.0958" ry="18"/>
<text text-anchor="middle" x="913.4879" y="-445.8" font-family="Times,serif" font-size="14.00" fill="#000000">none</text>
</g>
<!-- none&#45;&gt;symbol -->
<g id="edge46" class="edge">
<title>none&#45;&gt;symbol</title>
<path fill="none" stroke="#000000" d="M886.4513,-447.1331C782.8272,-436.145 410.2905,-396.6418 279.9254,-382.8181"/>
<polygon fill="#000000" stroke="#000000" points="280.1903,-379.3267 269.877,-381.7526 279.4521,-386.2876 280.1903,-379.3267"/>
</g>
<!-- none&#45;&gt;lowercase_letter -->
<g id="edge47" class="edge">
<title>none&#45;&gt;lowercase_letter</title>
<path fill="none" stroke="#000000" d="M913.4879,-431.7623C913.4879,-407.201 913.4879,-363.2474 913.4879,-334.3541"/>
<polygon fill="#000000" stroke="#000000" points="916.988,-334.0896 913.4879,-324.0896 909.988,-334.0897 916.988,-334.0896"/>
</g>
<!-- none&#45;&gt;uppercase_letter -->
<g id="edge48" class="edge">
<title>none&#45;&gt;uppercase_letter</title>
<path fill="none" stroke="#000000" d="M930.1156,-435.4001C958.311,-410.6431 1015.7682,-360.1929 1050.016,-330.1217"/>
<polygon fill="#000000" stroke="#000000" points="1052.5731,-332.5341 1057.7782,-323.306 1047.9545,-327.274 1052.5731,-332.5341"/>
</g>
<!-- none&#45;&gt;positive_integer -->
<g id="edge49" class="edge">
<title>none&#45;&gt;positive_integer</title>
<path fill="none" stroke="#000000" d="M892.1191,-438.432C872.6717,-427.904 843.4742,-412.0979 819.8171,-399.291"/>
<polygon fill="#000000" stroke="#000000" points="821.1852,-396.0517 810.7248,-394.3689 817.8526,-402.2075 821.1852,-396.0517"/>
</g>
<!-- none&#45;&gt;negative_integer -->
<g id="edge50" class="edge">
<title>none&#45;&gt;negative_integer</title>
<path fill="none" stroke="#000000" d="M887.2439,-444.6471C832.2703,-433.4344 703.6307,-407.1963 625.1525,-391.1894"/>
<polygon fill="#000000" stroke="#000000" points="625.3943,-387.6667 614.8965,-389.0975 623.9953,-394.5255 625.3943,-387.6667"/>
</g>
<!-- none&#45;&gt;url -->
<g id="edge51" class="edge">
<title>none&#45;&gt;url</title>
<path fill="none" stroke="#000000" d="M940.8864,-447.3521C1054.7668,-436.3462 1490.8191,-394.2042 1621.3551,-381.5887"/>
<polygon fill="#000000" stroke="#000000" points="1622.009,-385.0419 1631.6259,-380.5961 1621.3356,-378.0743 1622.009,-385.0419"/>
</g>
<!-- none&#45;&gt;path -->
<g id="edge52" class="edge">
<title>none&#45;&gt;path</title>
<path fill="none" stroke="#000000" d="M940.8286,-448.2023C1089.5054,-438.4262 1800.3041,-391.6888 1971.3883,-380.4394"/>
<polygon fill="#000000" stroke="#000000" points="1971.6657,-383.9288 1981.4145,-379.7802 1971.2063,-376.9439 1971.6657,-383.9288"/>
</g>
</g>
</svg>
